<svg width="151" height="29" viewBox="0 0 151 29" fill="none" xmlns="http://www.w3.org/2000/svg">
<path d="M25.3604 7.18152C26.7444 7.18155 27.7925 7.42548 28.5049 7.91394C29.2173 8.40245 29.7368 8.91109 30.0625 9.44031H30.6123V7.60828H34.3984V25.4403C34.3984 26.4784 34.0931 27.3033 33.4824 27.9139C32.8717 28.545 32.0569 28.8602 31.0391 28.8602H20.9023V25.5018H29.6963C30.266 25.5017 30.5507 25.1963 30.5508 24.5858V20.6464H30.001C29.7974 20.972 29.5128 21.3082 29.1465 21.6542C28.7801 21.9799 28.2913 22.2545 27.6807 22.4784C27.07 22.7023 26.2966 22.8143 25.3604 22.8143C24.1188 22.8143 22.9685 22.5197 21.9102 21.9296C20.8721 21.3189 20.0373 20.4533 19.4062 19.3339C18.7752 18.1939 18.459 16.8299 18.459 15.2421V14.7538C18.459 13.166 18.7752 11.8119 19.4062 10.6923C20.0373 9.55248 20.8721 8.68781 21.9102 8.09753C22.9686 7.48691 24.1187 7.18152 25.3604 7.18152ZM88.1904 7.18152C89.5747 7.18152 90.6235 7.42539 91.3359 7.91394C92.0481 8.40234 92.5669 8.91122 92.8926 9.44031H93.4424V7.60828H97.2285V25.4403C97.2285 26.4785 96.9232 27.3033 96.3125 27.9139C95.7018 28.5448 94.8878 28.8602 93.8701 28.8602H83.7324V25.5018H92.5264C93.0963 25.5018 93.3818 25.1964 93.3818 24.5858V20.6464H92.832C92.6285 20.9721 92.343 21.3081 91.9766 21.6542C91.6103 21.9797 91.1221 22.2545 90.5117 22.4784C89.901 22.7023 89.1268 22.8143 88.1904 22.8143C86.9488 22.8143 85.7987 22.5198 84.7402 21.9296C83.7021 21.3189 82.8674 20.4534 82.2363 19.3339C81.6053 18.1939 81.29 16.8299 81.29 15.2421V14.7538C81.29 13.166 81.6053 11.8119 82.2363 10.6923C82.8673 9.55246 83.7022 8.68785 84.7402 8.09753C85.7987 7.48689 86.9488 7.18157 88.1904 7.18152ZM71.5684 7.18152C73.5633 7.18152 75.1414 7.68015 76.3018 8.67761C77.4619 9.67506 78.042 11.1206 78.042 13.0135V18.662C78.042 19.2727 78.3275 19.578 78.8975 19.578H80.1182V22.7538H77.5537C76.8007 22.7538 76.1799 22.5702 75.6914 22.204C75.2029 21.8376 74.958 21.3488 74.958 20.7382V20.7079H74.3779C74.2965 20.9521 74.113 21.2775 73.8281 21.6844C73.5431 22.0712 73.0951 22.4182 72.4844 22.7235C71.8738 23.0286 71.0395 23.1815 69.9814 23.1815C68.9026 23.1815 67.935 22.9981 67.0801 22.6317C66.2251 22.2449 65.5431 21.6948 65.0342 20.9823C64.5458 20.2495 64.3018 19.3641 64.3018 18.326C64.3018 17.2879 64.5456 16.4225 65.0342 15.7303C65.543 15.018 66.2352 14.4885 67.1104 14.1425C68.006 13.7761 69.0242 13.5936 70.1641 13.5936H74.3174V12.7382C74.3174 12.0259 74.0932 11.4457 73.6455 10.9979C73.1977 10.5297 72.4849 10.2958 71.5078 10.2958C70.5511 10.2958 69.8383 10.5198 69.3701 10.9677C68.9022 11.395 68.5966 11.9545 68.4541 12.6464L64.9121 11.4559C65.1564 10.6824 65.543 9.97956 66.0723 9.34851C66.6218 8.69724 67.3448 8.1786 68.2402 7.79187C69.1562 7.38479 70.2658 7.18157 71.5684 7.18152ZM118.312 7.18152C120.306 7.18152 121.884 7.68019 123.044 8.67761C124.204 9.67507 124.785 11.1204 124.785 13.0135V18.662C124.785 19.2726 125.07 19.5779 125.64 19.578H126.861V22.7538H124.296C123.543 22.7537 122.922 22.5703 122.434 22.204C121.945 21.8376 121.701 21.3488 121.701 20.7382V20.7079H121.121C121.04 20.9521 120.856 21.2775 120.571 21.6844C120.286 22.0712 119.838 22.4182 119.228 22.7235C118.617 23.0288 117.782 23.1815 116.724 23.1815C115.645 23.1815 114.678 22.998 113.823 22.6317C112.968 22.2449 112.286 21.6948 111.777 20.9823C111.289 20.2495 111.044 19.3642 111.044 18.326C111.044 17.2879 111.289 16.4225 111.777 15.7303C112.286 15.018 112.978 14.4885 113.854 14.1425C114.749 13.7761 115.767 13.5936 116.907 13.5936H121.06V12.7382C121.06 12.0258 120.836 11.4457 120.388 10.9979C119.94 10.5298 119.227 10.2958 118.25 10.2958C117.293 10.2958 116.581 10.5199 116.113 10.9677C115.645 11.3951 115.34 11.9544 115.197 12.6464L111.655 11.4559C111.9 10.6824 112.286 9.97956 112.815 9.34851C113.365 8.69726 114.088 8.17858 114.983 7.79187C115.899 7.38476 117.009 7.18152 118.312 7.18152ZM9.75098 7.36414C10.9315 7.36418 11.9597 7.63878 12.835 8.18835C13.7306 8.71761 14.4226 9.46113 14.9111 10.4178C15.3996 11.3542 15.6436 12.4537 15.6436 13.7157V22.7538H11.7969V14.0204C11.7968 12.8806 11.5113 12.0258 10.9414 11.4559C10.3918 10.886 9.59773 10.6005 8.55957 10.6005C7.37904 10.6005 6.46287 10.998 5.81152 11.7919C5.1603 12.5653 4.83503 13.6542 4.83496 15.0585V22.7538H0.987305V7.60828H4.77344V9.59363H5.32324C5.56749 9.06442 6.02562 8.56569 6.69727 8.09753C7.36902 7.60898 8.38711 7.36414 9.75098 7.36414ZM46.1143 1.37976C48.9844 1.37976 51.1624 2.11241 52.6484 3.578C54.1548 5.0233 54.9082 7.1814 54.9082 10.0516V14.0819C54.9082 16.9521 54.1548 19.1202 52.6484 20.5858C51.1624 22.031 48.9844 22.7538 46.1143 22.7538H37.3203V19.2118H40.1299V4.92175H37.3203V1.37976H46.1143ZM61.626 22.7538H57.7783V7.60828H61.626V22.7538ZM109.983 10.9677H108.09C107.113 10.9677 106.309 11.2323 105.678 11.7616C105.047 12.2704 104.732 13.0639 104.731 14.1425V22.7538H100.884V7.60828H104.67V9.31824H105.22C105.444 8.70765 105.81 8.25944 106.319 7.97449C106.848 7.68968 107.459 7.54773 108.151 7.54773H109.983V10.9677ZM145.919 7.36414C146.855 7.36418 147.7 7.56743 148.453 7.97449C149.227 8.36124 149.837 8.96205 150.285 9.77625C150.753 10.5701 150.987 11.5783 150.987 12.7997V22.7538H147.14V13.0741C147.14 12.2397 146.926 11.6189 146.499 11.2118C146.072 10.7843 145.471 10.5702 144.697 10.5702C143.822 10.5702 143.14 10.8557 142.651 11.4257C142.183 11.9752 141.949 12.7687 141.949 13.8065V22.7538H138.102V13.0741C138.102 12.2397 137.888 11.6189 137.461 11.2118C137.033 10.7843 136.433 10.5702 135.659 10.5702C134.784 10.5702 134.102 10.8557 133.613 11.4257C133.145 11.9752 132.911 12.7687 132.911 13.8065V22.7538H129.063V7.60828H132.85V9.25769H133.399C133.664 8.74878 134.102 8.31063 134.713 7.94421C135.324 7.5576 136.128 7.36414 137.125 7.36414C138.204 7.36417 139.068 7.57836 139.72 8.00574C140.371 8.41286 140.871 8.95214 141.217 9.6239H141.766C142.112 8.97258 142.601 8.4332 143.231 8.00574C143.862 7.57826 144.759 7.36414 145.919 7.36414ZM70.4395 16.4637C69.727 16.4637 69.1669 16.6164 68.7598 16.9218C68.3527 17.2271 68.1494 17.6544 68.1494 18.204C68.1494 18.7536 68.3626 19.2017 68.79 19.5477C69.2174 19.8937 69.8383 20.0662 70.6523 20.0663C71.731 20.0663 72.6066 19.7716 73.2783 19.1815C73.9704 18.5708 74.3174 17.7659 74.3174 16.7684V16.4637H70.4395ZM117.182 16.4637C116.469 16.4638 115.909 16.6164 115.502 16.9218C115.095 17.2271 114.892 17.6545 114.892 18.204C114.892 18.7536 115.106 19.2017 115.533 19.5477C115.961 19.8936 116.581 20.0663 117.396 20.0663C118.474 20.0663 119.35 19.7717 120.021 19.1815C120.714 18.5708 121.06 17.7659 121.06 16.7684V16.4637H117.182ZM26.459 10.5399C25.2785 10.54 24.2909 10.9167 23.4971 11.6698C22.7034 12.4026 22.3066 13.4615 22.3066 14.8456V15.1503C22.3066 16.514 22.7033 17.5729 23.4971 18.326C24.2909 19.0792 25.2785 19.4559 26.459 19.4559C27.6396 19.4559 28.627 19.0792 29.4209 18.326C30.2148 17.5729 30.6123 16.5141 30.6123 15.1503V14.8456C30.6123 13.4614 30.2148 12.4026 29.4209 11.6698C28.6474 10.9166 27.66 10.5399 26.459 10.5399ZM89.29 10.5399C88.1094 10.5399 87.122 10.9166 86.3281 11.6698C85.5343 12.4026 85.1377 13.4614 85.1377 14.8456V15.1503C85.1377 16.5141 85.5342 17.5729 86.3281 18.326C87.122 19.0792 88.1094 19.4559 89.29 19.4559C90.4707 19.4559 91.4581 19.0792 92.252 18.326C93.0458 17.5729 93.4424 16.5141 93.4424 15.1503V14.8456C93.4424 13.4615 93.0457 12.4026 92.252 11.6698C91.4784 10.9166 90.491 10.5399 89.29 10.5399ZM44.1602 19.0897H46.1758C47.8041 19.0896 48.9949 18.6614 49.748 17.8065C50.501 16.9516 50.8779 15.7508 50.8779 14.204V9.92957C50.8779 8.36218 50.5012 7.16065 49.748 6.32605C48.9949 5.47116 47.8041 5.0439 46.1758 5.04382H44.1602V19.0897ZM59.7021 0.952026C60.4146 0.952026 61.0054 1.17606 61.4736 1.6239C61.9416 2.07164 62.1757 2.66185 62.1758 3.39441C62.1758 4.1272 61.9418 4.71806 61.4736 5.16589C61.0054 5.61373 60.4146 5.83777 59.7021 5.83777C59.0102 5.83771 58.4201 5.61356 57.9316 5.16589C57.4634 4.71806 57.2295 4.12723 57.2295 3.39441C57.2296 2.66175 57.4635 2.07166 57.9316 1.6239C58.4201 1.17616 59.0102 0.952083 59.7021 0.952026Z" fill="black"/>
</svg>
